<mxfile host="65bd71144e" scale="5" border="0">
    <diagram id="MAAUg5SlB5vbJC74zuwW" name="Page-1">
        <mxGraphModel dx="365" dy="795" grid="1" gridSize="10" guides="1" tooltips="1" connect="1" arrows="1" fold="1" page="1" pageScale="1" pageWidth="850" pageHeight="1100" math="0" shadow="0">
            <root>
                <mxCell id="0"/>
                <mxCell id="1" parent="0"/>
                <mxCell id="2" value="&lt;b&gt;alamAPI Database&lt;br&gt;(alamAPI_DB)&lt;/b&gt;" style="rounded=0;whiteSpace=wrap;html=1;fillColor=#dae8fc;strokeColor=#6c8ebf;fontFamily=CMU;fontSource=https%3A%2F%2Ffontlibrary.org%2F%2Fface%2Fcmu-serif;verticalAlign=top;movable=1;resizable=1;rotatable=1;deletable=1;editable=1;connectable=1;" parent="1" vertex="1">
                    <mxGeometry x="40" y="40" width="540" height="510" as="geometry"/>
                </mxCell>
                <mxCell id="17" value="&lt;b&gt;BUY&lt;/b&gt;" style="swimlane;fontStyle=0;childLayout=stackLayout;horizontal=1;startSize=30;horizontalStack=0;resizeParent=1;resizeParentMax=0;resizeLast=0;collapsible=1;marginBottom=0;whiteSpace=wrap;html=1;fontFamily=CMU;fontSource=https%3A%2F%2Ffontlibrary.org%2F%2Fface%2Fcmu-serif;" parent="1" vertex="1">
                    <mxGeometry x="75" y="110" width="140" height="180" as="geometry">
                        <mxRectangle x="100" y="160" width="40" height="40" as="alternateBounds"/>
                    </mxGeometry>
                </mxCell>
                <mxCell id="18" value="_id: MongoDB ObjectID" style="text;align=left;verticalAlign=middle;spacingLeft=4;spacingRight=4;overflow=hidden;points=[[0,0.5],[1,0.5]];portConstraint=eastwest;rotatable=0;whiteSpace=wrap;html=1;fillColor=#f5f5f5;fontColor=#333333;strokeColor=#666666;fontFamily=CMU;fontSource=https%3A%2F%2Ffontlibrary.org%2F%2Fface%2Fcmu-serif;" parent="17" vertex="1">
                    <mxGeometry y="30" width="140" height="30" as="geometry"/>
                </mxCell>
                <mxCell id="19" value="stock_symbol : String" style="text;align=left;verticalAlign=middle;spacingLeft=4;spacingRight=4;overflow=hidden;points=[[0,0.5],[1,0.5]];portConstraint=eastwest;rotatable=0;whiteSpace=wrap;html=1;fillColor=#f5f5f5;fontColor=#333333;strokeColor=#666666;fontFamily=CMU;fontSource=https%3A%2F%2Ffontlibrary.org%2F%2Fface%2Fcmu-serif;" parent="17" vertex="1">
                    <mxGeometry y="60" width="140" height="30" as="geometry"/>
                </mxCell>
                <mxCell id="24" value="last_closing : Floating Point Number" style="text;align=left;verticalAlign=middle;spacingLeft=4;spacingRight=4;overflow=hidden;points=[[0,0.5],[1,0.5]];portConstraint=eastwest;rotatable=0;whiteSpace=wrap;html=1;fillColor=#f5f5f5;fontColor=#333333;strokeColor=#666666;fontFamily=CMU;fontSource=https%3A%2F%2Ffontlibrary.org%2F%2Fface%2Fcmu-serif;" parent="17" vertex="1">
                    <mxGeometry y="90" width="140" height="30" as="geometry"/>
                </mxCell>
                <mxCell id="20" value="last_date : String" style="text;align=left;verticalAlign=middle;spacingLeft=4;spacingRight=4;overflow=hidden;points=[[0,0.5],[1,0.5]];portConstraint=eastwest;rotatable=0;whiteSpace=wrap;html=1;fillColor=#f5f5f5;fontColor=#333333;strokeColor=#666666;fontFamily=CMU;fontSource=https%3A%2F%2Ffontlibrary.org%2F%2Fface%2Fcmu-serif;" parent="17" vertex="1">
                    <mxGeometry y="120" width="140" height="30" as="geometry"/>
                </mxCell>
                <mxCell id="25" value="predicted_closing : Dictionary" style="text;align=left;verticalAlign=middle;spacingLeft=4;spacingRight=4;overflow=hidden;points=[[0,0.5],[1,0.5]];portConstraint=eastwest;rotatable=0;whiteSpace=wrap;html=1;fillColor=#f5f5f5;fontColor=#333333;strokeColor=#666666;fontFamily=CMU;fontSource=https%3A%2F%2Ffontlibrary.org%2F%2Fface%2Fcmu-serif;" parent="17" vertex="1">
                    <mxGeometry y="150" width="140" height="30" as="geometry"/>
                </mxCell>
                <mxCell id="26" value="&lt;b&gt;SELL&lt;/b&gt;" style="swimlane;fontStyle=0;childLayout=stackLayout;horizontal=1;startSize=30;horizontalStack=0;resizeParent=1;resizeParentMax=0;resizeLast=0;collapsible=1;marginBottom=0;whiteSpace=wrap;html=1;fontFamily=CMU;fontSource=https%3A%2F%2Ffontlibrary.org%2F%2Fface%2Fcmu-serif;" parent="1" vertex="1">
                    <mxGeometry x="75" y="310" width="140" height="180" as="geometry">
                        <mxRectangle x="100" y="160" width="40" height="40" as="alternateBounds"/>
                    </mxGeometry>
                </mxCell>
                <mxCell id="27" value="_id: MongoDB ObjectID" style="text;align=left;verticalAlign=middle;spacingLeft=4;spacingRight=4;overflow=hidden;points=[[0,0.5],[1,0.5]];portConstraint=eastwest;rotatable=0;whiteSpace=wrap;html=1;fillColor=#f5f5f5;fontColor=#333333;strokeColor=#666666;fontFamily=CMU;fontSource=https%3A%2F%2Ffontlibrary.org%2F%2Fface%2Fcmu-serif;" parent="26" vertex="1">
                    <mxGeometry y="30" width="140" height="30" as="geometry"/>
                </mxCell>
                <mxCell id="28" value="stock_symbol : String" style="text;align=left;verticalAlign=middle;spacingLeft=4;spacingRight=4;overflow=hidden;points=[[0,0.5],[1,0.5]];portConstraint=eastwest;rotatable=0;whiteSpace=wrap;html=1;fillColor=#f5f5f5;fontColor=#333333;strokeColor=#666666;fontFamily=CMU;fontSource=https%3A%2F%2Ffontlibrary.org%2F%2Fface%2Fcmu-serif;" parent="26" vertex="1">
                    <mxGeometry y="60" width="140" height="30" as="geometry"/>
                </mxCell>
                <mxCell id="29" value="last_closing : Floating Point Number" style="text;align=left;verticalAlign=middle;spacingLeft=4;spacingRight=4;overflow=hidden;points=[[0,0.5],[1,0.5]];portConstraint=eastwest;rotatable=0;whiteSpace=wrap;html=1;fillColor=#f5f5f5;fontColor=#333333;strokeColor=#666666;fontFamily=CMU;fontSource=https%3A%2F%2Ffontlibrary.org%2F%2Fface%2Fcmu-serif;" parent="26" vertex="1">
                    <mxGeometry y="90" width="140" height="30" as="geometry"/>
                </mxCell>
                <mxCell id="30" value="last_date : String" style="text;align=left;verticalAlign=middle;spacingLeft=4;spacingRight=4;overflow=hidden;points=[[0,0.5],[1,0.5]];portConstraint=eastwest;rotatable=0;whiteSpace=wrap;html=1;fillColor=#f5f5f5;fontColor=#333333;strokeColor=#666666;fontFamily=CMU;fontSource=https%3A%2F%2Ffontlibrary.org%2F%2Fface%2Fcmu-serif;" parent="26" vertex="1">
                    <mxGeometry y="120" width="140" height="30" as="geometry"/>
                </mxCell>
                <mxCell id="31" value="predicted_closing : Dictionary" style="text;align=left;verticalAlign=middle;spacingLeft=4;spacingRight=4;overflow=hidden;points=[[0,0.5],[1,0.5]];portConstraint=eastwest;rotatable=0;whiteSpace=wrap;html=1;fillColor=#f5f5f5;fontColor=#333333;strokeColor=#666666;fontFamily=CMU;fontSource=https%3A%2F%2Ffontlibrary.org%2F%2Fface%2Fcmu-serif;" parent="26" vertex="1">
                    <mxGeometry y="150" width="140" height="30" as="geometry"/>
                </mxCell>
                <mxCell id="32" value="&lt;b&gt;INFO&lt;/b&gt;" style="swimlane;fontStyle=0;childLayout=stackLayout;horizontal=1;startSize=30;horizontalStack=0;resizeParent=1;resizeParentMax=0;resizeLast=0;collapsible=1;marginBottom=0;whiteSpace=wrap;html=1;fontFamily=CMU;fontSource=https%3A%2F%2Ffontlibrary.org%2F%2Fface%2Fcmu-serif;" parent="1" vertex="1">
                    <mxGeometry x="240" y="120" width="140" height="330" as="geometry">
                        <mxRectangle x="100" y="160" width="40" height="40" as="alternateBounds"/>
                    </mxGeometry>
                </mxCell>
                <mxCell id="33" value="_id: MongoDB ObjectID" style="text;align=left;verticalAlign=middle;spacingLeft=4;spacingRight=4;overflow=hidden;points=[[0,0.5],[1,0.5]];portConstraint=eastwest;rotatable=0;whiteSpace=wrap;html=1;fillColor=#f5f5f5;fontColor=#333333;strokeColor=#666666;fontFamily=CMU;fontSource=https%3A%2F%2Ffontlibrary.org%2F%2Fface%2Fcmu-serif;" parent="32" vertex="1">
                    <mxGeometry y="30" width="140" height="30" as="geometry"/>
                </mxCell>
                <mxCell id="57" value="stock_symbol : String" style="text;align=left;verticalAlign=middle;spacingLeft=4;spacingRight=4;overflow=hidden;points=[[0,0.5],[1,0.5]];portConstraint=eastwest;rotatable=0;whiteSpace=wrap;html=1;fillColor=#f5f5f5;fontColor=#333333;strokeColor=#666666;fontFamily=CMU;fontSource=https%3A%2F%2Ffontlibrary.org%2F%2Fface%2Fcmu-serif;" vertex="1" parent="32">
                    <mxGeometry y="60" width="140" height="30" as="geometry"/>
                </mxCell>
                <mxCell id="34" value="stock_name : String" style="text;align=left;verticalAlign=middle;spacingLeft=4;spacingRight=4;overflow=hidden;points=[[0,0.5],[1,0.5]];portConstraint=eastwest;rotatable=0;whiteSpace=wrap;html=1;fillColor=#f5f5f5;fontColor=#333333;strokeColor=#666666;fontFamily=CMU;fontSource=https%3A%2F%2Ffontlibrary.org%2F%2Fface%2Fcmu-serif;" parent="32" vertex="1">
                    <mxGeometry y="90" width="140" height="30" as="geometry"/>
                </mxCell>
                <mxCell id="35" value="company_site : String" style="text;align=left;verticalAlign=middle;spacingLeft=4;spacingRight=4;overflow=hidden;points=[[0,0.5],[1,0.5]];portConstraint=eastwest;rotatable=0;whiteSpace=wrap;html=1;fillColor=#f5f5f5;fontColor=#333333;strokeColor=#666666;fontFamily=CMU;fontSource=https%3A%2F%2Ffontlibrary.org%2F%2Fface%2Fcmu-serif;" parent="32" vertex="1">
                    <mxGeometry y="120" width="140" height="30" as="geometry"/>
                </mxCell>
                <mxCell id="36" value="company_address : String" style="text;align=left;verticalAlign=middle;spacingLeft=4;spacingRight=4;overflow=hidden;points=[[0,0.5],[1,0.5]];portConstraint=eastwest;rotatable=0;whiteSpace=wrap;html=1;fillColor=#f5f5f5;fontColor=#333333;strokeColor=#666666;fontFamily=CMU;fontSource=https%3A%2F%2Ffontlibrary.org%2F%2Fface%2Fcmu-serif;" parent="32" vertex="1">
                    <mxGeometry y="150" width="140" height="30" as="geometry"/>
                </mxCell>
                <mxCell id="38" value="company_email : String" style="text;align=left;verticalAlign=middle;spacingLeft=4;spacingRight=4;overflow=hidden;points=[[0,0.5],[1,0.5]];portConstraint=eastwest;rotatable=0;whiteSpace=wrap;html=1;fillColor=#f5f5f5;fontColor=#333333;strokeColor=#666666;fontFamily=CMU;fontSource=https%3A%2F%2Ffontlibrary.org%2F%2Fface%2Fcmu-serif;" parent="32" vertex="1">
                    <mxGeometry y="180" width="140" height="30" as="geometry"/>
                </mxCell>
                <mxCell id="39" value="company_phone : Integer" style="text;align=left;verticalAlign=middle;spacingLeft=4;spacingRight=4;overflow=hidden;points=[[0,0.5],[1,0.5]];portConstraint=eastwest;rotatable=0;whiteSpace=wrap;html=1;fillColor=#f5f5f5;fontColor=#333333;strokeColor=#666666;fontFamily=CMU;fontSource=https%3A%2F%2Ffontlibrary.org%2F%2Fface%2Fcmu-serif;" parent="32" vertex="1">
                    <mxGeometry y="210" width="140" height="30" as="geometry"/>
                </mxCell>
                <mxCell id="40" value="sector : String" style="text;align=left;verticalAlign=middle;spacingLeft=4;spacingRight=4;overflow=hidden;points=[[0,0.5],[1,0.5]];portConstraint=eastwest;rotatable=0;whiteSpace=wrap;html=1;fillColor=#f5f5f5;fontColor=#333333;strokeColor=#666666;fontFamily=CMU;fontSource=https%3A%2F%2Ffontlibrary.org%2F%2Fface%2Fcmu-serif;" parent="32" vertex="1">
                    <mxGeometry y="240" width="140" height="30" as="geometry"/>
                </mxCell>
                <mxCell id="41" value="industry : String" style="text;align=left;verticalAlign=middle;spacingLeft=4;spacingRight=4;overflow=hidden;points=[[0,0.5],[1,0.5]];portConstraint=eastwest;rotatable=0;whiteSpace=wrap;html=1;fillColor=#f5f5f5;fontColor=#333333;strokeColor=#666666;fontFamily=CMU;fontSource=https%3A%2F%2Ffontlibrary.org%2F%2Fface%2Fcmu-serif;" parent="32" vertex="1">
                    <mxGeometry y="270" width="140" height="30" as="geometry"/>
                </mxCell>
                <mxCell id="42" value="key_executives : List&amp;lt;String&amp;gt;" style="text;align=left;verticalAlign=middle;spacingLeft=4;spacingRight=4;overflow=hidden;points=[[0,0.5],[1,0.5]];portConstraint=eastwest;rotatable=0;whiteSpace=wrap;html=1;fillColor=#f5f5f5;fontColor=#333333;strokeColor=#666666;fontFamily=CMU;fontSource=https%3A%2F%2Ffontlibrary.org%2F%2Fface%2Fcmu-serif;" parent="32" vertex="1">
                    <mxGeometry y="300" width="140" height="30" as="geometry"/>
                </mxCell>
                <mxCell id="43" value="&lt;b&gt;ML_MODELS_INFO&lt;/b&gt;" style="swimlane;fontStyle=0;childLayout=stackLayout;horizontal=1;startSize=30;horizontalStack=0;resizeParent=1;resizeParentMax=0;resizeLast=0;collapsible=1;marginBottom=0;whiteSpace=wrap;html=1;fontFamily=CMU;fontSource=https%3A%2F%2Ffontlibrary.org%2F%2Fface%2Fcmu-serif;" parent="1" vertex="1">
                    <mxGeometry x="405" y="110" width="140" height="150" as="geometry">
                        <mxRectangle x="100" y="160" width="40" height="40" as="alternateBounds"/>
                    </mxGeometry>
                </mxCell>
                <mxCell id="44" value="_id: MongoDB ObjectID" style="text;align=left;verticalAlign=middle;spacingLeft=4;spacingRight=4;overflow=hidden;points=[[0,0.5],[1,0.5]];portConstraint=eastwest;rotatable=0;whiteSpace=wrap;html=1;fillColor=#f5f5f5;fontColor=#333333;strokeColor=#666666;fontFamily=CMU;fontSource=https%3A%2F%2Ffontlibrary.org%2F%2Fface%2Fcmu-serif;" parent="43" vertex="1">
                    <mxGeometry y="30" width="140" height="30" as="geometry"/>
                </mxCell>
                <mxCell id="45" value="model_name : String" style="text;align=left;verticalAlign=middle;spacingLeft=4;spacingRight=4;overflow=hidden;points=[[0,0.5],[1,0.5]];portConstraint=eastwest;rotatable=0;whiteSpace=wrap;html=1;fillColor=#f5f5f5;fontColor=#333333;strokeColor=#666666;fontFamily=CMU;fontSource=https%3A%2F%2Ffontlibrary.org%2F%2Fface%2Fcmu-serif;" parent="43" vertex="1">
                    <mxGeometry y="60" width="140" height="30" as="geometry"/>
                </mxCell>
                <mxCell id="46" value="model_description : String" style="text;align=left;verticalAlign=middle;spacingLeft=4;spacingRight=4;overflow=hidden;points=[[0,0.5],[1,0.5]];portConstraint=eastwest;rotatable=0;whiteSpace=wrap;html=1;fillColor=#f5f5f5;fontColor=#333333;strokeColor=#666666;fontFamily=CMU;fontSource=https%3A%2F%2Ffontlibrary.org%2F%2Fface%2Fcmu-serif;" parent="43" vertex="1">
                    <mxGeometry y="90" width="140" height="30" as="geometry"/>
                </mxCell>
                <mxCell id="47" value="model_scores : Dictionary" style="text;align=left;verticalAlign=middle;spacingLeft=4;spacingRight=4;overflow=hidden;points=[[0,0.5],[1,0.5]];portConstraint=eastwest;rotatable=0;whiteSpace=wrap;html=1;fillColor=#f5f5f5;fontColor=#333333;strokeColor=#666666;fontFamily=CMU;fontSource=https%3A%2F%2Ffontlibrary.org%2F%2Fface%2Fcmu-serif;" parent="43" vertex="1">
                    <mxGeometry y="120" width="140" height="30" as="geometry"/>
                </mxCell>
                <mxCell id="49" value="&lt;b&gt;STOCK_RISKS_PROFILE&lt;/b&gt;" style="swimlane;fontStyle=0;childLayout=stackLayout;horizontal=1;startSize=30;horizontalStack=0;resizeParent=1;resizeParentMax=0;resizeLast=0;collapsible=1;marginBottom=0;whiteSpace=wrap;html=1;fontFamily=CMU;fontSource=https%3A%2F%2Ffontlibrary.org%2F%2Fface%2Fcmu-serif;" parent="1" vertex="1">
                    <mxGeometry x="397.5" y="270" width="155" height="240" as="geometry">
                        <mxRectangle x="100" y="160" width="40" height="40" as="alternateBounds"/>
                    </mxGeometry>
                </mxCell>
                <mxCell id="50" value="_id: MongoDB ObjectID" style="text;align=left;verticalAlign=middle;spacingLeft=4;spacingRight=4;overflow=hidden;points=[[0,0.5],[1,0.5]];portConstraint=eastwest;rotatable=0;whiteSpace=wrap;html=1;fillColor=#f5f5f5;fontColor=#333333;strokeColor=#666666;fontFamily=CMU;fontSource=https%3A%2F%2Ffontlibrary.org%2F%2Fface%2Fcmu-serif;" parent="49" vertex="1">
                    <mxGeometry y="30" width="155" height="30" as="geometry"/>
                </mxCell>
                <mxCell id="51" value="stock_symbol : String" style="text;align=left;verticalAlign=middle;spacingLeft=4;spacingRight=4;overflow=hidden;points=[[0,0.5],[1,0.5]];portConstraint=eastwest;rotatable=0;whiteSpace=wrap;html=1;fillColor=#f5f5f5;fontColor=#333333;strokeColor=#666666;fontFamily=CMU;fontSource=https%3A%2F%2Ffontlibrary.org%2F%2Fface%2Fcmu-serif;" parent="49" vertex="1">
                    <mxGeometry y="60" width="155" height="30" as="geometry"/>
                </mxCell>
                <mxCell id="52" value="value_at_risk : Floating Point Number" style="text;align=left;verticalAlign=middle;spacingLeft=4;spacingRight=4;overflow=hidden;points=[[0,0.5],[1,0.5]];portConstraint=eastwest;rotatable=0;whiteSpace=wrap;html=1;fillColor=#f5f5f5;fontColor=#333333;strokeColor=#666666;fontFamily=CMU;fontSource=https%3A%2F%2Ffontlibrary.org%2F%2Fface%2Fcmu-serif;" parent="49" vertex="1">
                    <mxGeometry y="90" width="155" height="30" as="geometry"/>
                </mxCell>
                <mxCell id="53" value="volatility : Floating Point Number" style="text;align=left;verticalAlign=middle;spacingLeft=4;spacingRight=4;overflow=hidden;points=[[0,0.5],[1,0.5]];portConstraint=eastwest;rotatable=0;whiteSpace=wrap;html=1;fillColor=#f5f5f5;fontColor=#333333;strokeColor=#666666;fontFamily=CMU;fontSource=https%3A%2F%2Ffontlibrary.org%2F%2Fface%2Fcmu-serif;" parent="49" vertex="1">
                    <mxGeometry y="120" width="155" height="30" as="geometry"/>
                </mxCell>
                <mxCell id="54" value="drawdown : Floating Point Number" style="text;align=left;verticalAlign=middle;spacingLeft=4;spacingRight=4;overflow=hidden;points=[[0,0.5],[1,0.5]];portConstraint=eastwest;rotatable=0;whiteSpace=wrap;html=1;fillColor=#f5f5f5;fontColor=#333333;strokeColor=#666666;fontFamily=CMU;fontSource=https%3A%2F%2Ffontlibrary.org%2F%2Fface%2Fcmu-serif;" parent="49" vertex="1">
                    <mxGeometry y="150" width="155" height="30" as="geometry"/>
                </mxCell>
                <mxCell id="55" value="start_date : String" style="text;align=left;verticalAlign=middle;spacingLeft=4;spacingRight=4;overflow=hidden;points=[[0,0.5],[1,0.5]];portConstraint=eastwest;rotatable=0;whiteSpace=wrap;html=1;fillColor=#f5f5f5;fontColor=#333333;strokeColor=#666666;fontFamily=CMU;fontSource=https%3A%2F%2Ffontlibrary.org%2F%2Fface%2Fcmu-serif;" parent="49" vertex="1">
                    <mxGeometry y="180" width="155" height="30" as="geometry"/>
                </mxCell>
                <mxCell id="56" value="end_date : String" style="text;align=left;verticalAlign=middle;spacingLeft=4;spacingRight=4;overflow=hidden;points=[[0,0.5],[1,0.5]];portConstraint=eastwest;rotatable=0;whiteSpace=wrap;html=1;fillColor=#f5f5f5;fontColor=#333333;strokeColor=#666666;fontFamily=CMU;fontSource=https%3A%2F%2Ffontlibrary.org%2F%2Fface%2Fcmu-serif;" parent="49" vertex="1">
                    <mxGeometry y="210" width="155" height="30" as="geometry"/>
                </mxCell>
            </root>
        </mxGraphModel>
    </diagram>
</mxfile>